# xmcd CD database file
#
# Track frame offsets:
#	150
#	29317
#	60839
#	84789
#	102544
#	122771
#	151509
#	185830
#	203536
#	223189
#	245983
#	276925
#	298784
#	325284
#
# Disc length: 4661 seconds
#
# Revision: 6
# Processed by: cddbd v1.5.2PL0 Copyright (c) Steve Scherf et al.
# Submitted via: CDex 1.51
#
DISCID=cb12330e
DTITLE=Bruce Springsteen - Greetings From Buffalo N.Y. [CD2)
DYEAR=2009
DGENRE=Jazz
TTITLE0=Waitin' On A Sunny Day
TTITLE1=The Promised Land
TTITLE2=Restless Nights
TTITLE3=Surprise, Surprise
TTITLE4=Green Onions
TTITLE5=Merry Christmas Baby (with Curt Ramm)
TTITLE6=Santa Claus Is Comin' To Town (with Curt Ramm)
TTITLE7=(I Don't Want To) Hang Up My Rock And Roll Shoes
TTITLE8=Boom Boom
TTITLE9=My Love Will Not Let You Down
TTITLE10=Long Walk Home
TTITLE11=The Rising
TTITLE12=Born to Run
TTITLE13=Tenth Avenue Freeze-Out (with Curt Ramm)
EXTD=YEAR: 2009
EXTT0=
EXTT1=
EXTT2=
EXTT3=
EXTT4=
EXTT5=
EXTT6=
EXTT7=
EXTT8=
EXTT9=
EXTT10=
EXTT11=
EXTT12=
EXTT13=
PLAYORDER=
